# xmcd
#
# Track frame offsets: 
#        150
#        19431
#        38197
#        62678
#        77929
#        99049
#        119515
#        142298
#        165700
#        184070
#        205204
#        221146
#        238020
#        258751
#        276344
#
# Disc length: 3908 seconds
#
# Revision: 1
# Processed by: cddbd v1.5.2PL0 Copyright (c) Steve Scherf et al.
# Submitted via: ExactAudioCopy v0.99pb4
#
DISCID=e20f420f
DTITLE=Юлла - Москва-Урал
DYEAR=2008
DGENRE=Pop
TTITLE0=Я улыбнусь
TTITLE1=Город ночной
TTITLE2=Прости
TTITLE3=Слезинка
TTITLE4=Быть с тобой
TTITLE5=Нет, не зови
TTITLE6=Ты где-то
TTITLE7=Пусть будет так
TTITLE8=Юрка-хулиган
TTITLE9=Дожди
TTITLE10=В стиле "Чили"
TTITLE11=Костры осенние
TTITLE12=Зачем
TTITLE13=Москва-Урал
TTITLE14=Любимому заводу
EXTD=
EXTT0=
EXTT1=
EXTT2=
EXTT3=
EXTT4=
EXTT5=
EXTT6=
EXTT7=
EXTT8=
EXTT9=
EXTT10=
EXTT11=
EXTT12=
EXTT13=
EXTT14=
PLAYORDER=
